<?xml version="1.0" encoding="UTF-8" standalone="no"?>
<svg
   width="1024"
   height="1024"
   viewBox="0 0 1024 1024"
   version="1.1"
   id="svg1"
   sodipodi:docname="AethermentcutoutBlackTemplate.svg"
   inkscape:version="1.4.3 (0d15f75042, 2025-12-25)"
   xmlns:inkscape="http://www.inkscape.org/namespaces/inkscape"
   xmlns:sodipodi="http://sodipodi.sourceforge.net/DTD/sodipodi-0.dtd"
   xmlns="http://www.w3.org/2000/svg"
   xmlns:svg="http://www.w3.org/2000/svg"
   xmlns:rdf="http://www.w3.org/1999/02/22-rdf-syntax-ns#"
   xmlns:cc="http://creativecommons.org/ns#"
   xmlns:dc="http://purl.org/dc/elements/1.1/">
  <title
     id="title1">Aetherment Logo</title>
  <defs
     id="defs1" />
  <sodipodi:namedview
     id="namedview1"
     pagecolor="#ffffff"
     bordercolor="#000000"
     borderopacity="0.25"
     inkscape:showpageshadow="2"
     inkscape:pageopacity="0.0"
     inkscape:pagecheckerboard="0"
     inkscape:deskcolor="#d1d1d1"
     inkscape:zoom="1.1396484"
     inkscape:cx="512"
     inkscape:cy="722.59126"
     inkscape:window-width="2560"
     inkscape:window-height="1368"
     inkscape:window-x="0"
     inkscape:window-y="0"
     inkscape:window-maximized="1"
     inkscape:current-layer="svg1" />
  <g
     id="g1"
     transform="matrix(1.8599898,0,0,1.8599898,-438.98986,-412.35966)">
    <path
       d="m 281.32,750.94 c 1.09,-9.23 11.71,-37.36 20.73,-54.94 18.24,-35.52 51.24,-71.05 84.18,-90.61 7.9,-4.68 42.79,-22.28 57.3,-28.89 43.33,-19.74 63.2,-36.36 77.05,-64.45 3.26,-6.6 6.54,-12.01 7.3,-12.03 1.13,-0.02 1.27,2.53 0.83,14.23 -1.02,26.83 -6.34,40.15 -23.77,59.53 -3.78,4.2 -6.71,7.78 -6.52,7.97 0.64,0.64 23.07,-7.99 34.08,-13.12 31.98,-14.89 49.05,-26.39 69.99,-47.13 18.21,-18.05 28.48,-32.6 37.03,-52.5 10.98,-25.58 15.37,-50.08 14.03,-78.37 -1.11,-23.23 -1.11,-24.1 -0.14,-24.63 1.25,-0.68 3.76,4.04 9.51,17.85 10.67,25.62 14.48,42.94 14.43,65.65 -0.04,22.32 -3.93,38.9 -13.71,58.43 -15.41,30.79 -42.11,56.62 -78.14,75.61 -4.95,2.61 -9.45,5.07 -10,5.46 -2.79,1.99 -24.76,11.38 -35.16,15.02 -13.44,4.71 -40.68,13.53 -53.34,17.29 -23.02,6.82 -30.51,9.27 -42.46,13.88 -23.78,9.17 -37.79,17.52 -50.9,30.33 -9.62,9.41 -15.37,17.2 -20.44,27.71 -7.24,15 -9.93,27.03 -10.88,48.52 L 361.69,756 h -40.48 -40.49 z m 374.91,2.31 c -1.05,-1.51 -3.59,-7.03 -5.66,-12.25 -3.72,-9.41 -29.57,-72.09 -36.09,-87.5 -5.42,-12.83 -13.18,-31.62 -15.06,-36.5 -0.95,-2.47 -2.1,-4.97 -2.53,-5.55 -0.44,-0.58 -1.08,-2.83 -1.41,-5 l -0.6,-3.95 11.81,-7.48 c 21.53,-13.65 38.41,-27.45 48.79,-39.92 5.84,-7 7.81,-8.31 8.82,-5.85 0.54,1.3 12.4,28.67 31.96,73.75 6.33,14.58 13.6,31.22 16.16,37 5.72,12.9 6.63,14.97 7.67,17.5 0.45,1.1 2.64,5.98 4.86,10.85 2.23,4.87 4.05,8.99 4.05,9.17 0,0.34 17.01,39.58 19.59,45.21 1.84,4.01 4.41,11.23 4.41,12.4 0,0.48 -21.02,0.87 -47.43,0.87 H 658.14 Z M 272,695.07 c 0,-8.97 4.23,-31.78 8.03,-43.31 7.26,-22.05 20.14,-44.3 44.97,-77.72 33.41,-44.96 45.52,-65.24 55.39,-92.77 4.78,-13.32 7.4,-25.75 8.5,-40.43 1.1,-14.46 -0.06,-38.12 -2.39,-48.93 -0.87,-4.07 -1.81,-8.42 -2.07,-9.66 -0.83,-3.96 2.2,-2.56 8.6,4 8.08,8.27 14.52,18.08 19.01,28.97 2.02,4.9 4.07,8.99 4.56,9.09 0.5,0.1 1.68,-2.96 2.63,-6.81 5.64,-22.81 20.24,-57.11 34.57,-81.24 7.34,-12.37 10.18,-16.12 23.53,-31.16 28.57,-32.18 65.11,-53.88 109.47,-65.04 20.3,-5.1 55.28,-8.4 55.18,-5.2 -0.01,0.35 -5.52,2.42 -12.25,4.59 -32.93,10.62 -56.96,23.29 -82.23,43.35 -11.69,9.28 -36.54,34.93 -45.72,47.2 -19.35,25.86 -37.83,61.27 -55.31,106 -3.12,7.98 -9.19,23.56 -13.48,34.63 -15.11,38.9 -28.13,63.39 -44.07,82.87 -3.15,3.85 -20.83,21.96 -39.28,40.25 -18.46,18.29 -36.15,36.46 -39.32,40.38 -12.08,14.96 -23.94,35.91 -32.34,57.12 -2.34,5.91 -4.64,10.75 -5.12,10.75 -0.47,0 -0.86,-3.12 -0.86,-6.93 z M 424,560.66 c 0,-0.87 2.98,-8.92 6.63,-17.87 18.6,-45.73 23.14,-56.85 30.57,-74.79 4.44,-10.73 10.95,-26.48 14.48,-35 3.53,-8.52 6.82,-16.4 7.3,-17.5 0.49,-1.1 2.94,-6.79 5.44,-12.65 19.37,-45.39 37.87,-72.86 66.83,-99.24 9.85,-8.97 23.39,-19.61 24.94,-19.61 1.07,0 0.06,4.33 -2.22,9.5 -3.72,8.44 -4.22,11.9 -3.71,26.11 0.57,16.23 0.83,17.06 17.19,54.39 9.65,22.05 19.47,44.59 21.11,48.5 0.69,1.65 3.06,7.27 5.25,12.5 5.47,13 5.69,14.57 3.15,22.13 -2.94,8.74 -10.23,23.05 -15.72,30.87 -2.5,3.58 -11.42,13.34 -19.8,21.71 -14.4,14.36 -19.27,17.92 -21.42,15.67 -1.4,-1.46 -35.51,-82.63 -43.45,-103.38 -5.94,-15.55 -8.05,-20.33 -9.09,-20.65 -0.54,-0.17 -5.67,11.27 -11.4,25.42 -5.73,14.15 -13.32,32.71 -16.88,41.23 -3.55,8.52 -8.01,19.33 -9.92,24 -1.9,4.67 -4.08,9.85 -4.85,11.5 -0.76,1.65 -5.4,13.12 -10.32,25.5 l -8.93,22.5 -9.83,4.82 c -11.4,5.6 -15.35,6.72 -15.35,4.34 z"
       fill="rgba(0,0,0,1)"
       id="path1" />
  </g>
  <metadata
     id="metadata1">
    <rdf:RDF>
      <cc:Work
         rdf:about="">
        <dc:title>Aetherment Logo</dc:title>
        <dc:creator>
          <cc:Agent>
            <dc:title>Mek (MekXVII)</dc:title>
          </cc:Agent>
        </dc:creator>
        <dc:date>27/01/26</dc:date>
      </cc:Work>
    </rdf:RDF>
  </metadata>
</svg>
